<svg width="41" height="42" viewBox="0 0 41 42" fill="none" xmlns="http://www.w3.org/2000/svg">
<path fill-rule="evenodd" clip-rule="evenodd" d="M28.6579 7.21755C27.5067 6.25763 26.2587 5.52387 24.9478 5.03732C24.5527 4.89086 24.1413 5.1885 24.0287 5.7025C23.9161 6.21602 24.1449 6.75168 24.54 6.89814C25.7111 7.33281 26.8263 7.98856 27.8547 8.84652C27.9792 8.95041 28.118 9 28.2555 9C28.5003 9 28.7403 8.84277 28.8823 8.55457C29.1038 8.10478 29.0036 7.50624 28.6579 7.21755Z" fill="#ED503E"/>
<path fill-rule="evenodd" clip-rule="evenodd" d="M20.7414 4.07976C20.7107 4.07976 20.6805 4.07935 20.6498 4.07935C15.8658 4.07935 11.3099 6.04488 8.13784 9.48C7.81658 9.8277 7.8546 10.3558 8.22238 10.6595C8.39036 10.7974 8.59713 10.8655 8.80345 10.8655C9.05001 10.8655 9.29512 10.7684 9.46995 10.5794C12.3058 7.50799 16.3766 5.75099 20.6502 5.75099C20.6771 5.75099 20.7047 5.75099 20.7315 5.75141H20.7367C21.2227 5.75141 21.6177 5.38041 21.6208 4.92008C21.6233 4.45849 21.2297 4.08227 20.7414 4.07976Z" fill="#ED503E"/>
<path fill-rule="evenodd" clip-rule="evenodd" d="M39.9544 26.4233L28.4806 25.6442C28.0334 22.2601 27.8905 19.0245 27.8701 18.5087C29.6953 17.239 31.8883 16.5412 34.1987 16.5166L40.0217 16.4554C40.2873 16.453 40.5376 16.3375 40.7029 16.1412C40.8687 15.9449 40.9322 15.689 40.8761 15.4433C39.8992 11.1638 37.3785 7.26796 33.7795 4.4736C30.1301 1.64048 25.5158 0.0667358 20.7871 0.042288C20.7482 0.0418701 20.7102 0.0418701 20.6714 0.0418701C15.1695 0.0418701 9.99612 2.08409 6.09371 5.79953C4.15235 7.64794 2.63546 9.8052 1.58471 12.2114C0.498153 14.7002 -0.0345154 17.3362 0.00173262 20.0464C0.0250507 21.794 0.180431 23.5359 0.463121 25.2242C0.768355 27.0423 2.4088 28.3618 4.36387 28.3618C5.5679 28.3618 6.54737 29.2879 6.54737 30.4256V33.2816C6.54737 35.3393 7.32184 37.3363 8.72821 38.9043C10.1403 40.4784 12.1006 41.5195 14.247 41.8353C14.9886 41.9447 15.7609 41.9998 16.5423 41.9998H16.6062C18.455 41.9929 20.1913 41.2999 21.495 40.0491C22.8117 38.7847 23.5257 37.1114 23.5049 35.3369L23.4467 30.3897L27.6384 30.684C27.9759 31.9602 28.3843 33.0797 28.8794 33.8726C31.3677 37.8595 38.1599 38.046 38.4478 38.0521C38.4543 38.0521 38.4612 38.0521 38.4677 38.0521C38.9464 38.0521 39.3397 37.6905 39.3509 37.2355C39.3617 36.7743 38.9754 36.3919 38.4876 36.3804C38.4711 36.3804 38.0286 36.3678 37.3513 36.2886L38.2721 31.4308L39.256 31.4998C39.2784 31.5014 39.3004 31.5023 39.3224 31.5023C39.7809 31.5023 40.1686 31.1676 40.2031 30.7281C40.2393 30.2678 39.8737 29.867 39.3867 29.8326L38.5859 29.7763L38.917 28.0288L39.8275 28.0905C39.8491 28.092 39.8702 28.0924 39.8919 28.0924C40.3512 28.0924 40.7393 27.7565 40.7724 27.3166C40.8079 26.8563 40.4413 26.4563 39.9544 26.4233ZM23.4272 28.712L23.4065 26.9755L26.9282 27.2146C27.0227 27.81 27.1285 28.4026 27.2451 28.9801L23.4272 28.712ZM23.5243 25.3075C23.833 23.3261 24.7434 21.4814 26.1728 19.9689C26.2513 21.2924 26.4046 23.3477 26.6852 25.5222L23.5243 25.3075ZM25.2533 18.4511C22.8846 20.7407 21.6008 23.7652 21.6384 26.9677L21.7367 35.3557C21.7523 36.6812 21.2192 37.9317 20.2353 38.8761C19.2649 39.8074 17.9733 40.3229 16.6026 40.3281L16.5423 40.3285C15.8516 40.3285 15.1707 40.2796 14.5194 40.1837C10.9246 39.6548 8.31556 36.7519 8.31556 33.2816V30.4256C8.31556 28.3659 6.54306 26.6901 4.36387 26.6901C3.28383 26.6901 2.37774 25.9637 2.20976 24.9622C1.94 23.3539 1.79192 21.6928 1.76993 20.0252C1.70428 15.0989 3.68532 10.4651 7.34858 6.97741C10.9165 3.58063 15.644 1.71351 20.6714 1.71351C20.7067 1.71351 20.7421 1.71351 20.7776 1.71393C29.2041 1.7576 36.6511 7.19984 38.8869 14.7957L34.1793 14.8454C30.7918 14.8809 27.6219 16.1616 25.2533 18.4511ZM35.61 35.9989C33.7494 35.5908 31.4799 34.7496 30.4024 33.0229C30.0545 32.4655 29.7528 31.701 29.4907 30.8142L36.4996 31.3064L35.61 35.9989ZM36.8134 29.6523L29.0633 29.1079C28.9412 28.5365 28.8307 27.9415 28.7309 27.3371L37.1441 27.9083L36.8134 29.6523Z" fill="black"/>
<path fill-rule="evenodd" clip-rule="evenodd" d="M14.9999 31C13.3458 31 12 32.3458 12 34C12 35.6542 13.3458 37 14.9999 37C16.6542 37 18 35.6542 18 34C18 32.3458 16.6542 31 14.9999 31ZM14.9999 35.6136C14.1104 35.6136 13.3863 34.8898 13.3863 34C13.3863 33.1101 14.1104 32.3864 14.9999 32.3864C15.8896 32.3864 16.6137 33.1101 16.6137 34C16.6137 34.8898 15.8896 35.6136 14.9999 35.6136Z" fill="#ED503E"/>
</svg>
