<svg width="36" height="49" viewBox="0 0 36 49" fill="none" xmlns="http://www.w3.org/2000/svg">
<path fill-rule="evenodd" clip-rule="evenodd" d="M23.6351 43.5482H21.0781C20.7981 42.4224 19.8973 41.5352 18.7544 41.2593V21.1546C20.1391 20.8202 21.17 19.588 21.17 18.1224C21.17 16.4007 19.748 15 17.9997 15C16.252 15 14.83 16.4007 14.83 18.1224C14.83 19.588 15.8609 20.8202 17.245 21.1546V41.2593C16.1026 41.5352 15.2019 42.4229 14.9214 43.5482H12.3649C11.0608 43.5482 10 44.5931 10 45.8777V48.2566C10 48.6669 10.338 49 10.7547 49H25.2453C25.6619 49 26 48.6669 26 48.2566V45.8777C26 44.5931 24.9391 43.5482 23.6351 43.5482ZM16.3394 18.1224C16.3394 17.2206 17.0843 16.4869 17.9997 16.4869C18.9157 16.4869 19.6606 17.2206 19.6606 18.1224C19.6606 19.0246 18.9157 19.7583 17.9997 19.7583C17.0843 19.7583 16.3394 19.0246 16.3394 18.1224ZM17.9997 42.6557C18.6435 42.6557 19.2016 43.0191 19.4773 43.5482H16.5227C16.7984 43.0191 17.356 42.6557 17.9997 42.6557ZM24.4906 47.5131H11.5094V45.8772C11.5094 45.4131 11.8932 45.035 12.3649 45.035H23.6351C24.1068 45.035 24.4906 45.4131 24.4906 45.8772V47.5131Z" fill="black"/>
<path fill-rule="evenodd" clip-rule="evenodd" d="M17.9997 0C8.07484 0 0 7.78259 0 17.3481C0 21.1596 1.25948 24.7758 3.64178 27.8054C5.94498 30.7352 9.21817 32.9241 12.8575 33.9686C13.2642 34.0855 13.6929 33.862 13.8141 33.47C13.9352 33.0776 13.7039 32.6645 13.2962 32.5476C9.96843 31.5925 6.9751 29.5904 4.8678 26.9101C2.68973 24.1401 1.53846 20.8339 1.53846 17.3481C1.53846 8.60021 8.9233 1.48275 17.9997 1.48275C27.0767 1.48275 34.4615 8.60021 34.4615 17.3481C34.4615 20.8339 33.3101 24.1401 31.1322 26.9101C29.0249 29.5904 26.0316 31.5925 22.7033 32.5476C22.2961 32.6645 22.0647 33.0776 22.1859 33.47C22.285 33.7915 22.5911 34 22.9226 34C22.9952 34 23.0693 33.9899 23.1425 33.9686C26.7817 32.9241 30.0545 30.7352 32.3582 27.8054C34.7405 24.7758 36 21.1596 36 17.3481C36 7.78259 27.925 0 17.9997 0Z" fill="#ED503E"/>
<path fill-rule="evenodd" clip-rule="evenodd" d="M17.9997 11.4941C21.5788 11.4941 24.4906 14.3761 24.4906 17.9182C24.4906 19.7342 23.7019 21.4758 22.3261 22.6969C22.0161 22.9722 21.99 23.4445 22.2681 23.7519C22.4176 23.9162 22.6234 23.9999 22.8303 23.9999C23.01 23.9999 23.1899 23.9371 23.3339 23.8093C25.028 22.305 26 20.1578 26 17.9182C26 13.5522 22.4112 10 17.9997 10C13.5888 10 10 13.5522 10 17.9182C10 20.1578 10.9713 22.305 12.6661 23.8093C12.9761 24.0845 13.4532 24.0588 13.7319 23.7519C14.01 23.4445 13.9839 22.9722 13.6739 22.6969C12.298 21.4758 11.5094 19.7342 11.5094 17.9182C11.5094 14.3761 14.4212 11.4941 17.9997 11.4941Z" fill="black"/>
<path fill-rule="evenodd" clip-rule="evenodd" d="M22.895 29C22.997 29 23.1011 28.9803 23.2006 28.9383C27.9388 26.9476 31 22.4548 31 17.4923C31 10.604 25.1687 5 18 5C10.8319 5 5 10.604 5 17.4923C5 22.4548 8.06188 26.9476 12.8 28.9383C13.1868 29.1004 13.6374 28.931 13.8066 28.5593C13.9759 28.1876 13.7996 27.7542 13.4123 27.5916C9.23137 25.8348 6.52941 21.8707 6.52941 17.4923C6.52941 11.4145 11.6752 6.46968 18 6.46968C24.3253 6.46968 29.4706 11.4145 29.4706 17.4923C29.4706 21.8707 26.7693 25.8348 22.5879 27.5919C22.2009 27.7542 22.0248 28.1876 22.1935 28.5593C22.3194 28.8354 22.6002 29 22.895 29Z" fill="black"/>
</svg>
