<svg width="45" height="46" viewBox="0 0 45 46" fill="none" xmlns="http://www.w3.org/2000/svg">
<mask id="mask0" mask-type="alpha" maskUnits="userSpaceOnUse" x="0" y="0" width="45" height="46">
<path fill-rule="evenodd" clip-rule="evenodd" d="M0.0600586 0.683594H44.3321V45.9793H0.0600586V0.683594Z" fill="white"/>
</mask>
<g mask="url(#mask0)">
<path fill-rule="evenodd" clip-rule="evenodd" d="M34.965 24.9652C34.965 24.7496 34.883 24.5381 34.73 24.3869L34.496 24.1478L34.73 23.9077C34.883 23.7565 34.965 23.5491 34.965 23.3294V20.4001L44.332 10.8284L43.199 9.67592L38.164 14.8204L30.496 6.98159L35.531 1.84122L34.398 0.683594L25.035 10.2542H22.164C21.953 10.2542 21.75 10.338 21.602 10.4933L21.367 10.7334L17.93 7.22068C17.781 7.06946 17.578 6.98159 17.367 6.98159H16.098L9.93 0.683594L8.801 1.84122L10.633 3.71305L2.965 11.5477L1.133 9.67592L0 10.8284L6.164 17.1305V21.6967C6.164 21.9123 6.25 22.1197 6.398 22.276L8.566 24.4871V27.0812L0 35.8294L1.133 36.987L5.367 32.661L13.035 40.4957L8.801 44.8217L9.93 45.9793L18.496 37.2261H21.367C21.578 37.2261 21.781 37.1382 21.93 36.987L22.496 36.4087H25.035L34.398 45.9793L35.531 44.8217L30.496 39.6772L38.164 31.8426L43.199 36.987L44.332 35.8294L34.965 26.2628V24.9652ZM29.367 8.13922L37.035 15.9739L34.164 18.9073L26.496 11.0686L29.367 8.13922ZM25.035 11.887L33.367 20.4001V22.9943L22.496 11.887H25.035ZM33.367 25.3044V26.2628L25.035 34.776H22.496L18.164 30.3498V29.3914L19.199 30.4499L20.332 29.2923L11.227 19.9924C11.059 19.8167 10.965 19.5899 10.965 19.3426C10.965 18.8389 11.367 18.4281 11.863 18.4281C12.102 18.4281 12.328 18.5242 12.496 18.6958L18.398 24.7261L19.531 23.5685L13.629 17.5382C13.461 17.3666 13.367 17.1346 13.367 16.8914C13.367 16.3847 13.77 15.9739 14.262 15.9739C14.504 15.9739 14.727 16.0689 14.898 16.2406L20.801 22.276L21.93 21.1184L16.027 15.087C15.859 14.9123 15.766 14.6845 15.766 14.4372C15.766 13.9345 16.168 13.5228 16.664 13.5228C16.902 13.5228 17.129 13.6188 17.297 13.7905L23.199 19.8208L24.332 18.6672L18.43 12.6328C18.258 12.4612 18.164 12.2303 18.164 11.9861C18.164 11.4793 18.566 11.0686 19.062 11.0686C19.301 11.0686 19.527 11.1646 19.695 11.3393L20 11.6469L33.367 25.3044ZM11.766 4.86966L14.633 7.80001L6.965 15.6347L4.098 12.7044L11.766 4.86966ZM7.766 17.1305L16.098 8.6174H17.035L18.051 9.65549C17.203 10.0427 16.609 10.8969 16.574 11.8941C15.27 11.9421 14.223 13.016 14.176 14.3494C12.867 14.3974 11.82 15.4671 11.773 16.7995C10.438 16.8475 9.367 17.9653 9.367 19.3426C9.367 20.0241 9.625 20.6668 10.098 21.146L10.633 21.6967L9.367 22.9943L7.766 21.3575V17.1305ZM14.164 39.3421L6.496 31.5033L9.367 28.574L17.035 36.4087L14.164 39.3421ZM18.496 35.5903L10.164 27.0812V24.487L11.766 22.8502L16.566 27.7556V30.689C16.566 30.9046 16.648 31.112 16.801 31.2632L21.035 35.5903H18.496ZM29.367 38.5237L26.496 35.5903L34.164 27.7556L37.035 30.689L29.367 38.5237Z" fill="black"/>
</g>
<path fill-rule="evenodd" clip-rule="evenodd" d="M32 31.7549L33.756 30L35 31.2396L33.2451 33L32 31.7549Z" fill="#ED503E"/>
<path fill-rule="evenodd" clip-rule="evenodd" d="M12 36.2396L13.2451 35L15 36.7549L13.756 38L12 36.2396Z" fill="#ED503E"/>
<path fill-rule="evenodd" clip-rule="evenodd" d="M9 9.75722L10.7549 8L12 9.24278L10.2396 11L9 9.75722Z" fill="#ED503E"/>
<path fill-rule="evenodd" clip-rule="evenodd" d="M29 12.2402L30.2407 11L32 12.7554L30.7549 14L29 12.2402Z" fill="#ED503E"/>
</svg>
