<svg width="12" height="10" viewBox="0 0 12 10" fill="none" xmlns="http://www.w3.org/2000/svg">
<path fill-rule="evenodd" clip-rule="evenodd" d="M1.8457 9.1699C1.70898 9.30662 1.54297 9.37498 1.34765 9.37498C1.15234 9.37498 0.986326 9.30662 0.849607 9.1699L0.205078 8.49607C0.0683591 8.35935 0 8.19334 0 7.99803C0 7.80272 0.0683591 7.6367 0.205078 7.49998L3.01757 4.68749L0.205078 1.875C0.0683591 1.73828 0 1.57226 0 1.37695C0 1.18164 0.0683591 1.01562 0.205078 0.878904L0.849607 0.205078C0.986326 0.0683591 1.15234 0 1.34765 0C1.54297 0 1.70898 0.0683591 1.8457 0.205078L5.83006 4.18944C5.96678 4.32616 6.03514 4.49218 6.03514 4.68749C6.03514 4.8828 5.96678 5.04882 5.83006 5.18553L1.8457 9.1699ZM11.4551 4.18944C11.5918 4.32616 11.6601 4.49218 11.6601 4.68749C11.6601 4.8828 11.5918 5.04882 11.4551 5.18553L7.47069 9.1699C7.33397 9.30662 7.16795 9.37498 6.97264 9.37498C6.77733 9.37498 6.61131 9.30662 6.47459 9.1699L5.83006 8.49607C5.69335 8.35935 5.62499 8.19334 5.62499 7.99803C5.62499 7.80272 5.69335 7.6367 5.83006 7.49998L8.64256 4.68749L5.83006 1.8457C5.69335 1.72851 5.62499 1.57226 5.62499 1.37695C5.62499 1.18164 5.69335 1.01562 5.83006 0.878904L6.47459 0.205078C6.61131 0.0683591 6.77733 0 6.97264 0C7.16795 0 7.33397 0.0683591 7.47069 0.205078L11.4551 4.18944Z" fill="black"/>
</svg>
