<svg width="22" height="22" viewBox="0 0 22 22" fill="none" xmlns="http://www.w3.org/2000/svg">
<path fill-rule="evenodd" clip-rule="evenodd" d="M11 0.093811C9.08076 0.093811 7.30472 0.573628 5.67191 1.53326C4.0391 2.49289 2.74288 3.78911 1.78325 5.42192C0.823618 7.05473 0.343801 8.83077 0.343801 10.75C0.343801 12.6693 0.823618 14.4453 1.78325 16.0781C2.74288 17.711 4.0391 19.0072 5.67191 19.9668C7.30472 20.9264 9.08076 21.4063 11 21.4063C12.9193 21.4063 14.6953 20.9264 16.3281 19.9668C17.9609 19.0072 19.2572 17.711 20.2168 16.0781C21.1764 14.4453 21.6562 12.6693 21.6562 10.75C21.6562 8.83077 21.1764 7.05473 20.2168 5.42192C19.2572 3.78911 17.9609 2.49289 16.3281 1.53326C14.6953 0.573628 12.9193 0.093811 11 0.093811ZM6.1016 10.0196L11.9453 4.17583C12.1459 3.97531 12.3893 3.87505 12.6758 3.87505C12.9623 3.87505 13.1914 3.97531 13.3633 4.17583L14.0938 4.9063C14.3229 5.13547 14.4375 5.38612 14.4375 5.65825C14.4375 5.93039 14.3229 6.16671 14.0938 6.36723L9.75393 10.75L14.0938 15.1328C14.3229 15.3334 14.4375 15.5768 14.4375 15.8633C14.4375 16.1498 14.3229 16.3933 14.0938 16.5938L13.3633 17.2813C13.1628 17.5104 12.9265 17.625 12.6543 17.625C12.3822 17.625 12.1459 17.5248 11.9453 17.3242L6.1016 11.4805C5.90108 11.28 5.80082 11.0365 5.80082 10.75C5.80082 10.4636 5.90108 10.2201 6.1016 10.0196Z" fill="white"/>
</svg>
