<svg width="22" height="22" viewBox="0 0 22 22" fill="none" xmlns="http://www.w3.org/2000/svg">
<path fill-rule="evenodd" clip-rule="evenodd" d="M11 0.093811C12.9192 0.093811 14.6953 0.573628 16.3281 1.53326C17.9609 2.49289 19.2571 3.78911 20.2167 5.42192C21.1764 7.05473 21.6562 8.83077 21.6562 10.75C21.6562 12.6693 21.1764 14.4453 20.2167 16.0781C19.2571 17.711 17.9609 19.0072 16.3281 19.9668C14.6953 20.9264 12.9192 21.4063 11 21.4063C9.08071 21.4063 7.30467 20.9264 5.67186 19.9668C4.03905 19.0072 2.74283 17.711 1.7832 16.0781C0.823567 14.4453 0.34375 12.6693 0.34375 10.75C0.34375 8.83077 0.823567 7.05473 1.7832 5.42192C2.74283 3.78911 4.03905 2.49289 5.67186 1.53326C7.30467 0.573628 9.08071 0.093811 11 0.093811ZM15.8984 10.0196L10.0547 4.17583C9.85414 3.97531 9.61065 3.87505 9.3242 3.87505C9.03774 3.87505 8.80857 3.97531 8.6367 4.17583L7.90623 4.9063C7.67707 5.13547 7.56248 5.38612 7.56248 5.65825C7.56248 5.93039 7.67707 6.16671 7.90623 6.36723L12.2461 10.75L7.90623 15.1328C7.67707 15.3334 7.56248 15.5768 7.56248 15.8633C7.56248 16.1498 7.67707 16.3933 7.90623 16.5938L8.6367 17.2813C8.83722 17.5104 9.07355 17.625 9.34568 17.625C9.61782 17.625 9.85414 17.5248 10.0547 17.3242L15.8984 11.4805C16.0989 11.28 16.1992 11.0365 16.1992 10.75C16.1992 10.4636 16.0989 10.2201 15.8984 10.0196Z" fill="white"/>
</svg>
