<svg width="47" height="48" viewBox="0 0 47 48" fill="none" xmlns="http://www.w3.org/2000/svg">
<path fill-rule="evenodd" clip-rule="evenodd" d="M11.7351 23.5331C11.2473 21.9047 11 20.2117 11 18.5C11 13.3721 13.2394 8.51882 17.1429 5.18444C20.3051 2.48593 24.3385 1 28.5 1C32.6978 1 36.757 2.50917 39.9305 5.24934C43.788 8.57869 46 13.4079 46 18.5C46 20.2135 45.7518 21.9091 45.2627 23.5403C44.2029 27.0692 41.9922 30.2413 39.0375 32.4725C35.9821 34.7802 32.3383 36 28.5 36C24.6603 36 21.0156 34.7793 17.9599 32.4702C15.0043 30.2371 12.7935 27.0634 11.7351 23.5331ZM13.318 18.5C13.318 19.6081 13.4374 20.7067 13.6731 21.779L19.6049 20.1898L22.2717 12.0808L17.8602 7.66923C14.9613 10.5185 13.318 14.4082 13.318 18.5ZM28.5 3.31801C25.311 3.31801 22.2096 4.32328 19.6394 6.17036L24.2056 10.7362H32.9259L37.4363 6.22634C34.8512 4.34297 31.723 3.31801 28.5 3.31801ZM43.682 18.5C43.682 14.4417 42.0628 10.5762 39.2052 7.73493L34.7605 12.1796L37.3888 20.1956L43.3256 21.7861C43.5621 20.7108 43.682 19.6099 43.682 18.5ZM29.659 33.6369C35.4406 33.1866 40.547 29.4006 42.6527 24.0053L36.7964 22.4363L29.659 27.5463V33.6369ZM28.5018 25.5243L35.1383 20.7729L32.608 13.0542H24.3916L21.8617 20.7474L28.5018 25.5243ZM27.341 27.5449L20.2228 22.4238L14.3447 23.9985C16.449 29.3979 21.5563 33.1866 27.341 33.6369V27.5449Z" fill="black"/>
<path d="M11.7351 23.5331L11.4957 23.6049L11.4956 23.6049L11.7351 23.5331ZM17.1429 5.18444L16.9805 4.99435L16.9806 4.99427L17.1429 5.18444ZM39.9305 5.24934L39.7671 5.4386L39.7671 5.43856L39.9305 5.24934ZM45.2627 23.5403L45.5022 23.6121L45.5021 23.6122L45.2627 23.5403ZM39.0375 32.4725L38.8868 32.273L38.8868 32.273L39.0375 32.4725ZM17.9599 32.4702L18.1106 32.2707L18.1106 32.2708L17.9599 32.4702ZM13.6731 21.779L13.7378 22.0205L13.4851 22.0882L13.4289 21.8327L13.6731 21.779ZM19.6049 20.1898L19.8424 20.2679L19.8002 20.3963L19.6696 20.4313L19.6049 20.1898ZM22.2717 12.0808L22.4485 11.904L22.5572 12.0128L22.5092 12.1589L22.2717 12.0808ZM17.8602 7.66923L17.6849 7.49093L17.8617 7.31719L18.0369 7.49245L17.8602 7.66923ZM19.6394 6.17036L19.4626 6.34715L19.2545 6.13908L19.4935 5.96735L19.6394 6.17036ZM24.2056 10.7362V10.9862H24.102L24.0288 10.913L24.2056 10.7362ZM32.9259 10.7362L33.1026 10.913L33.0294 10.9862H32.9259V10.7362ZM37.4363 6.22634L37.5835 6.02428L37.8198 6.19642L37.6131 6.40313L37.4363 6.22634ZM39.2052 7.73493L39.0284 7.55816L39.2047 7.38189L39.3815 7.55765L39.2052 7.73493ZM34.7605 12.1796L34.5229 12.2575L34.475 12.1114L34.5837 12.0028L34.7605 12.1796ZM37.3888 20.1956L37.3241 20.4371L37.1934 20.4021L37.1512 20.2735L37.3888 20.1956ZM43.3256 21.7861L43.5698 21.8398L43.5136 22.0953L43.261 22.0276L43.3256 21.7861ZM29.659 33.6369L29.6784 33.8861L29.409 33.9071V33.6369H29.659ZM42.6527 24.0053L42.7174 23.7638L42.9871 23.8361L42.8856 24.0962L42.6527 24.0053ZM36.7964 22.4363L36.6509 22.233L36.747 22.1642L36.8611 22.1948L36.7964 22.4363ZM29.659 27.5463H29.409V27.4178L29.5135 27.343L29.659 27.5463ZM28.5018 25.5243L28.6474 25.7276L28.5015 25.832L28.3558 25.7273L28.5018 25.5243ZM35.1383 20.7729L35.3759 20.695L35.433 20.8694L35.2839 20.9762L35.1383 20.7729ZM32.608 13.0542V12.8042H32.7891L32.8455 12.9763L32.608 13.0542ZM24.3916 13.0542L24.1541 12.9761L24.2106 12.8042H24.3916V13.0542ZM21.8617 20.7474L21.7157 20.9503L21.567 20.8433L21.6242 20.6693L21.8617 20.7474ZM27.341 27.5449L27.487 27.342L27.591 27.4168V27.5449H27.341ZM20.2228 22.4238L20.1581 22.1823L20.2726 22.1516L20.3688 22.2209L20.2228 22.4238ZM14.3447 23.9985L14.1118 24.0893L14.0104 23.8293L14.28 23.7571L14.3447 23.9985ZM27.341 33.6369H27.591V33.9071L27.3216 33.8861L27.341 33.6369ZM11.4956 23.6049C11.0007 21.953 10.75 20.2358 10.75 18.5H11.25C11.25 20.1875 11.4938 21.8564 11.9746 23.4614L11.4956 23.6049ZM10.75 18.5C10.75 13.2989 13.0215 8.37615 16.9805 4.99435L17.3053 5.37453C13.4573 8.66149 11.25 13.4454 11.25 18.5H10.75ZM16.9806 4.99427C20.1881 2.25709 24.279 0.75 28.5 0.75V1.25C24.3979 1.25 20.4221 2.71477 17.3052 5.37461L16.9806 4.99427ZM28.5 0.75C32.7577 0.75 36.875 2.28069 40.0939 5.06012L39.7671 5.43856C36.6391 2.73764 32.6379 1.25 28.5 1.25V0.75ZM40.0938 5.06008C44.0063 8.43689 46.25 13.3352 46.25 18.5H45.75C45.75 13.4807 43.5697 8.72049 39.7671 5.4386L40.0938 5.06008ZM46.25 18.5C46.25 20.2377 45.9983 21.9575 45.5022 23.6121L45.0232 23.4685C45.5053 21.8608 45.75 20.1893 45.75 18.5H46.25ZM45.5021 23.6122C44.427 27.1923 42.185 30.4089 39.1882 32.672L38.8868 32.273C41.7994 30.0736 43.9789 26.9461 45.0233 23.4684L45.5021 23.6122ZM39.1882 32.672C36.0892 35.0126 32.3925 36.25 28.5 36.25V35.75C32.284 35.75 35.8749 34.5479 38.8868 32.273L39.1882 32.672ZM28.5 36.25C24.6061 36.25 20.9084 35.0116 17.8091 32.6697L18.1106 32.2708C21.1228 34.547 24.7146 35.75 28.5 35.75V36.25ZM17.8092 32.6697C14.8114 30.4048 12.5694 27.1864 11.4957 23.6049L11.9746 23.4613C13.0176 26.9404 15.1971 30.0695 18.1106 32.2707L17.8092 32.6697ZM13.568 18.5C13.568 19.5901 13.6855 20.6708 13.9173 21.7253L13.4289 21.8327C13.1893 20.7427 13.068 19.626 13.068 18.5H13.568ZM13.6084 21.5375L19.5402 19.9483L19.6696 20.4313L13.7378 22.0205L13.6084 21.5375ZM19.3674 20.1117L22.0342 12.0027L22.5092 12.1589L19.8424 20.2679L19.3674 20.1117ZM22.0949 12.2575L17.6834 7.84601L18.0369 7.49245L22.4485 11.904L22.0949 12.2575ZM18.0354 7.84752C15.1842 10.65 13.568 14.4755 13.568 18.5H13.068C13.068 14.3408 14.7385 10.387 17.6849 7.49093L18.0354 7.84752ZM28.5 3.56801C25.3635 3.56801 22.313 4.55677 19.7853 6.37338L19.4935 5.96735C22.1061 4.0898 25.2585 3.06801 28.5 3.06801V3.56801ZM19.8161 5.99358L24.3823 10.5594L24.0288 10.913L19.4626 6.34715L19.8161 5.99358ZM24.2056 10.4862H32.9259V10.9862H24.2056V10.4862ZM32.7491 10.5594L37.2595 6.04955L37.6131 6.40313L33.1026 10.913L32.7491 10.5594ZM37.2891 6.4284C34.7467 4.57612 31.67 3.56801 28.5 3.56801V3.06801C31.776 3.06801 34.9558 4.10983 37.5835 6.02428L37.2891 6.4284ZM43.432 18.5C43.432 14.5085 41.8395 10.7067 39.0289 7.91222L39.3815 7.55765C42.2861 10.4457 43.932 14.3749 43.932 18.5H43.432ZM39.382 7.91171L34.9372 12.3563L34.5837 12.0028L39.0284 7.55816L39.382 7.91171ZM34.998 12.1017L37.6264 20.1177L37.1512 20.2735L34.5229 12.2575L34.998 12.1017ZM37.4535 19.9542L43.3903 21.5446L43.261 22.0276L37.3241 20.4371L37.4535 19.9542ZM43.0815 21.7324C43.3141 20.6747 43.432 19.5919 43.432 18.5H43.932C43.932 19.6279 43.8102 20.7468 43.5698 21.8398L43.0815 21.7324ZM29.6396 33.3876C35.3257 32.9448 40.349 29.2202 42.4198 23.9144L42.8856 24.0962C40.745 29.581 35.5556 33.4284 29.6784 33.8861L29.6396 33.3876ZM42.588 24.2468L36.7317 22.6777L36.8611 22.1948L42.7174 23.7638L42.588 24.2468ZM36.9419 22.6395L29.8045 27.7496L29.5135 27.343L36.6509 22.233L36.9419 22.6395ZM29.909 27.5463V33.6369H29.409V27.5463H29.909ZM28.3563 25.321L34.9928 20.5696L35.2839 20.9762L28.6474 25.7276L28.3563 25.321ZM34.9008 20.8508L32.3704 13.1321L32.8455 12.9763L35.3759 20.695L34.9008 20.8508ZM32.608 13.3042H24.3916V12.8042H32.608V13.3042ZM24.6291 13.1323L22.0992 20.8255L21.6242 20.6693L24.1541 12.9761L24.6291 13.1323ZM22.0077 20.5444L28.6478 25.3214L28.3558 25.7273L21.7157 20.9503L22.0077 20.5444ZM27.195 27.7479L20.0768 22.6267L20.3688 22.2209L27.487 27.342L27.195 27.7479ZM20.2875 22.6653L14.4094 24.24L14.28 23.7571L20.1581 22.1823L20.2875 22.6653ZM14.5776 23.9078C16.647 29.2175 21.6713 32.9448 27.3604 33.3876L27.3216 33.8861C21.4413 33.4284 16.2509 29.5782 14.1118 24.0893L14.5776 23.9078ZM27.091 33.6369V27.5449H27.591V33.6369H27.091Z" fill="white"/>
<path fill-rule="evenodd" clip-rule="evenodd" d="M12.8267 34.2334C13.3173 33.7913 14.1114 33.7913 14.602 34.2334C15.092 34.6756 15.092 35.3929 14.602 35.835L3.77468 45.6033C3.52922 45.8244 3.20815 45.9354 2.88708 45.9354C2.566 45.9354 2.24443 45.8244 1.99947 45.6033C1.50943 45.1612 1.50943 44.4443 1.99947 44.0022L12.8267 34.2334Z" fill="#ED503E"/>
<path fill-rule="evenodd" clip-rule="evenodd" d="M0.439767 35.801L7.50204 29.4295C7.99208 28.9878 8.78671 28.9878 9.27675 29.4295C9.76729 29.872 9.76729 30.5889 9.27675 31.031L2.21497 37.4026C1.97001 37.6232 1.64894 37.7342 1.32737 37.7342C1.0063 37.7342 0.685222 37.6236 0.439767 37.4026C-0.0502748 36.96 -0.0502748 36.2431 0.439767 35.801Z" fill="#ED503E"/>
<path fill-rule="evenodd" clip-rule="evenodd" d="M16.9853 39.3456C17.4465 38.8848 18.1932 38.8848 18.6544 39.3456C19.1152 39.8063 19.1152 40.5535 18.6544 41.0142L12.0147 47.6544C11.7839 47.8848 11.482 48 11.1801 48C10.8782 48 10.576 47.8848 10.3456 47.6544C9.88481 47.1937 9.88481 46.4465 10.3456 45.9853L16.9853 39.3456Z" fill="#ED503E"/>
</svg>
