<svg width="42" height="52" viewBox="0 0 42 52" fill="none" xmlns="http://www.w3.org/2000/svg">
<mask id="mask0" mask-type="alpha" maskUnits="userSpaceOnUse" x="30" y="32" width="12" height="13">
<path fill-rule="evenodd" clip-rule="evenodd" d="M41.8199 32.1425H30.2339V44.3791H41.8199V32.1425Z" fill="white"/>
</mask>
<g mask="url(#mask0)">
<path fill-rule="evenodd" clip-rule="evenodd" d="M31.923 32.1425L36 36.6415L40.323 32.1425L42 33.899L37.677 38.3825L42 42.6257L40.323 44.3791L36 40.139L31.923 44.3791L30.234 42.6257L34.323 38.3825L30.234 33.899L31.923 32.1425Z" fill="#ED503E"/>
</g>
<path fill-rule="evenodd" clip-rule="evenodd" d="M14.6715 41.3186V33.2653L34.0342 15.1815H26.3358V13H38V23.8939H35.6642V16.7012L17.0073 34.1395V41.3186C19.5676 41.7571 21.6642 43.9358 21.6642 46.5531C21.6642 49.6061 19.101 52 15.8321 52C12.5632 52 10 49.6061 10 46.5531C10 44.1591 12.1083 41.9804 14.6715 41.3186ZM15.8321 50.0446C17.7013 50.0446 19.3285 48.5112 19.3285 46.7655C19.3285 45.0334 17.9404 43.5001 15.8321 43.5001C13.7355 43.5001 12.3358 45.0334 12.3358 46.7655C12.3358 48.5112 13.9658 50.0446 15.8321 50.0446Z" fill="black"/>
<path fill-rule="evenodd" clip-rule="evenodd" d="M0 17.709L1.71953 16L5.88067 20.4012L10.2774 16L12 17.709L7.58797 22.1256L12 26.2879L10.2774 28L5.88067 23.8346L1.71953 28L0 26.2879L4.15808 22.1256L0 17.709Z" fill="#ED503E"/>
<path fill-rule="evenodd" clip-rule="evenodd" d="M11.7195 0L15.8807 4.40898L20.2774 0L22 1.71035L17.588 6.11933L22 10.2774L20.2774 12L15.8807 7.82968L11.7195 12L10 10.2774L14.1581 6.11933L10 1.71035L11.7195 0Z" fill="#ED503E"/>
</svg>
