<svg enable-background="new 0 0 1295.5 233" viewBox="0 0 1295.5 233" xmlns="http://www.w3.org/2000/svg"><g fill="#f7f7fa"><path d="m35.5 33.3c.4-1.7 1.2-3 2.3-4s2.5-1.5 4.2-1.5h75.7c7 0 13.3 1.3 19 4 5.6 2.7 10.3 6.3 14 11s6.2 10.1 7.6 16.3 1.3 12.9-.2 20.1c-1.4 6-3.5 11.5-6.4 16.6s-6.6 9.7-10.9 13.8c4.5 5.3 7.7 11.5 9.5 18.8s1.9 14.9.2 23c-1.6 7.2-4.5 14.1-8.6 20.6s-9.1 12.2-14.9 17.1-12.1 8.8-19 11.6c-6.9 2.9-13.9 4.3-20.9 4.3h-82.7c-1.6 0-2.8-.4-3.6-1.3-.8-.8-1-2.1-.6-3.9zm67.9 116.4c.5-2.4.5-4.8.1-7.2s-1.2-4.5-2.4-6.4-2.8-3.4-4.8-4.6-4.3-1.8-6.9-1.8h-28l-8.5 39.9h27.9c2.6 0 5.2-.6 7.6-1.7 2.5-1.1 4.7-2.6 6.7-4.5s3.8-4 5.2-6.4c1.6-2.3 2.6-4.8 3.1-7.3m8.5-69.4c.5-2.4.5-4.6.1-6.7s-1.3-3.9-2.6-5.5-2.9-2.8-5-3.8c-2-.9-4.4-1.4-7-1.4h-22l-7.3 34.6h21.6c2.7 0 5.3-.4 7.7-1.3 2.4-.8 4.6-2 6.6-3.6 1.9-1.6 3.6-3.4 5-5.5 1.4-1.9 2.3-4.2 2.9-6.8"/><path d="m243.4 32.5c.6-1 1.6-2 3.1-3 1.5-1.1 2.9-1.6 4.3-1.6h30.5c1.4 0 2.5.4 3.3 1.1.9.8 1.4 1.5 1.6 2.3l29.8 168.4c.1.7.1 1.3 0 1.8-.5 2.4-2.5 3.6-6 3.6h-34.2c-1.8 0-3.2-.3-4.1-1s-1.4-1.8-1.7-3.4c-.6-4.1-1.3-8.1-2-12.1s-1.3-8.1-2-12.1h-63.4c-2.4 4.1-4.8 8.1-7.2 12.1s-4.8 8.1-7.2 12.1c-.9 1.4-1.8 2.5-2.9 3.3s-2.4 1.1-4 1.1h-35.2c-1.3 0-2.3-.3-3.2-.8-.8-.5-1.1-1.3-.9-2.4.1-.4.3-.9.7-1.6zm10.8 51.1c-2.4 4.1-4.8 8.4-7.3 13.1s-5.1 9.4-7.6 14.2c-2.6 4.8-5.1 9.5-7.6 14.1-2.5 4.7-4.9 9-7.3 13.1h36.6z"/><path d="m365 33.1c.3-1.4 1.1-2.7 2.2-3.7 1.2-1 2.6-1.6 4.2-1.6h35.3c1.3 0 2.5.5 3.5 1.4 1 1 1.3 2.2.9 3.8l-27.6 129.8h65.6c1.4 0 2.6.5 3.4 1.4.8 1 1.1 2.3.7 3.9l-6.7 31.4c-.3 1.4-1 2.6-2.1 3.8s-2.5 1.7-4.2 1.7h-106.5c-3.5 0-4.9-1.7-4.2-5.3z"/><path d="m500 33.1c.3-1.4 1.1-2.7 2.2-3.7 1.2-1 2.6-1.6 4.2-1.6h35.3c1.3 0 2.5.5 3.5 1.4 1 1 1.3 2.2.9 3.8l-27.6 129.8h65.6c1.4 0 2.6.5 3.4 1.4.8 1 1.1 2.3.7 3.9l-6.7 31.4c-.3 1.4-1 2.6-2.1 3.8s-2.5 1.7-4.2 1.7h-106.5c-3.5 0-4.9-1.7-4.2-5.3z"/><path d="m634.9 33.3c.4-1.7 1.2-3 2.3-4s2.5-1.5 4.2-1.5h118.5c1.8 0 3 .5 3.8 1.6.8 1 .9 2.4.5 4.2l-6.3 29.6c-.2 1.4-1 2.6-2.2 3.9-1.2 1.2-2.8 1.8-4.6 1.8h-77.3l-6.2 29.5h59.7c1.5 0 2.7.4 3.5 1.1s1.1 1.9.7 3.6l-5.5 25.8c-.2 1.1-.9 2.2-2 3.2s-2.4 1.6-4.1 1.6h-59.9l-6.4 30.4h80.2c3.5 0 4.9 1.8 4.2 5.5l-6.4 30.1c-.3 1.6-1.1 2.9-2.4 3.9s-2.8 1.6-4.5 1.6h-120.9c-1.6 0-2.8-.4-3.6-1.3-.8-.8-1-2.1-.6-3.9z"/><path d="m788.1 33.3c.4-1.7 1.1-3 2.2-4s2.5-1.5 4.2-1.5h77.1c8.2 0 15.6 1.5 22.1 4.6s11.9 7.2 16.1 12.5 7.1 11.4 8.7 18.4 1.5 14.5-.2 22.5c-1.1 5.4-2.9 10.6-5.5 15.5-2.5 4.9-5.6 9.5-9.1 13.7-3.5 4.3-7.4 8.1-11.8 11.6s-9 6.4-13.8 8.9l18.5 57.8c.3 1.1.8 2.4 1.3 3.9.6 1.5.7 2.8.5 3.9-.6 2.6-2.5 3.9-5.5 3.9h-40.9c-1.4 0-2.5-.4-3.5-1.2s-1.4-1.9-1.4-3.2l-17.3-54.5h-19.3l-11.5 53.8c-.8 3.4-3 5.1-6.6 5.1h-35.4c-1.6 0-2.8-.4-3.6-1.3-.8-.8-1-2.1-.6-3.9zm82.2 53c.5-2.4.5-4.8.2-7.2-.4-2.4-1.1-4.6-2.3-6.6s-2.7-3.7-4.7-5c-1.9-1.4-4.2-2.2-6.9-2.6-2.1-.2-4.2-.3-6.1-.4s-4.1-.2-6.4-.2h-16.5l-9.3 43.8h22c1.4 0 2.7 0 3.8-.1s2.4-.2 3.8-.4c2.9-.3 5.5-1.1 8-2.4s4.7-2.9 6.6-4.9c1.9-1.9 3.6-4.1 4.9-6.6 1.4-2.4 2.4-4.8 2.9-7.4"/></g><path d="m1281.4 0h-288.9c-9.7 0-19.5 8.8-21.8 19.7l-40.3 193.7c-2.2 10.8 3.9 19.7 13.6 19.7h289c9.7 0 19.5-8.8 21.8-19.7l40.3-193.7c2.2-10.9-3.9-19.7-13.7-19.7zm-187.6 87.1-3.7 17.4c-.4 1.9-1.3 3.5-2.8 4.8s-3.2 2-5.1 2h-15.8l-16.1 75.4c-.8 3.8-3.3 5.7-7.4 5.7h-26.5c-3.9 0-5.5-1.9-4.7-5.7l16.1-75.4h-15.8c-4.5 0-6.2-2.3-5.1-6.8l3.7-17.4c.9-4.3 3.5-6.5 7.9-6.5h15.8l6-28.4c.4-1.5 1.2-2.8 2.4-4s2.8-1.9 4.9-2.3l28.6-4.4c1.5 0 2.6.5 3.3 1.5s.9 2.3.5 4l-7.1 33.5h15.8c1.9 0 3.3.5 4.3 1.6.9 1.2 1.2 2.8.8 5zm136.9-.1c-.1.3-.2.6-.2.8-.1.3-.2.6-.3.9l-58.9 94.9c-.5.9-1.1 1.8-1.7 2.8s-1.3 2-2.1 2.8c-.8.9-1.7 1.6-2.6 2.2-1 .6-2 .8-3.2.8h-26.8c-1.4 0-2.5-.2-3.1-.6-.7-.4-1.2-1-1.6-1.7-.4-1-.7-2-1.1-3.1-.3-1.1-.6-2.2-.7-3.3-2.8-15.7-5.8-31.4-8.9-47.1s-6.1-31.4-8.9-47.2c-.1-.1-.1-.4-.1-1s.1-1.2.2-1.8c.6-2.6 2.5-3.9 5.7-3.9h31.9c1.7 0 3 .4 4 1.3.9.9 1.5 2.1 1.6 3.7.3 4.5.7 9.4 1.2 14.7s.9 10.6 1.4 15.8c.4 5.2.9 10.1 1.2 14.7.4 4.6.6 8.3.8 11.2l28.6-56.7c1-1.7 2.2-2.9 3.4-3.7 1.2-.7 2.7-1.1 4.5-1.1h31.4c2 0 3.4.4 4 1.2.4 1 .5 2 .3 3.4z" fill="#ff7900"/></svg>